<?xml version="1.0" encoding="UTF-8"?>
<svg xmlns:xlink="http://www.w3.org/1999/xlink" width="298px" height="63px" viewBox="0 0 298 63" version="1.1"
     xmlns="http://www.w3.org/2000/svg">
    <!-- Generator: Sketch 58 (84663) - https://sketch.com -->
    <title>中奖公告</title>
    <desc>Created with Sketch.</desc>
    <g id="切图" stroke="none" stroke-width="1" fill="none" fill-rule="evenodd">
        <g id="UI-3:5.5" transform="translate(-391.000000, -1378.000000)" fill="#FFEEE0" fill-rule="nonzero">
            <g id="Group-2" transform="translate(0.000000, 555.000000)">
                <g id="base" transform="translate(44.000000, 7.000000)">
                    <g id="中奖公告-2" transform="translate(347.107438, 816.528926)">
                        <path d="M21.8233471,0.0645661157 L27.1823347,0.968491736 L29.3493374,1.34680918 C30.4926937,1.55194072 31.5351623,1.74866469 32.4767562,1.93698347 L32.9932851,2.25981405 L32.9932851,11.8801653 L43.9049587,11.8801653 L45.1770733,10.7489223 C45.8394532,10.1687173 46.3623823,9.72796294 46.7458678,9.42665289 C47.7358865,8.69489992 48.4891503,8.28598528 49.0056818,8.19989669 L52.8150826,10.588843 L58.5614669,14.2045455 L58.7551653,14.3336777 L56.6890496,16.2706612 L56.050561,16.8445834 C55.6870779,17.1793704 55.4479459,17.4185025 55.3331612,17.5619835 L55.3331612,42.2262397 C53.7405223,42.3984168 51.9326892,42.6566787 49.9096074,43.0010331 L44.615186,43.9695248 L44.2923554,43.9695248 L44.2923554,39.4498967 L32.9932851,39.4498967 L32.9932851,59.9173554 C31.2284691,60.1756211 29.420636,60.4554048 27.5697314,60.7567149 L22.0816116,61.6606405 L21.8233471,61.6606405 L21.8233471,39.4498967 L11.0408058,39.4498967 L11.0408058,42.8719008 L6.80527143,43.5330574 C6.43509223,43.5915974 6.06060795,43.6509983 5.68181818,43.7112603 L0.258264463,44.6797521 L0,44.6797521 L0,8.00619835 L4.5196281,9.49121901 C6.54270984,10.1799277 8.43663029,10.8471042 10.2014463,11.4927686 L11.2345041,11.8801653 L21.8233471,11.8801653 L21.8233471,0.0645661157 Z M11.0408058,16.1415289 L11.0408058,35.1885331 L21.8233471,35.1885331 L21.8233471,16.1415289 L11.0408058,16.1415289 Z M32.9932851,16.1415289 L32.9932851,35.1885331 L44.2923554,35.1885331 L44.2923554,16.1415289 L32.9932851,16.1415289 Z M91.9292355,-2.84217094e-14 L96.0614669,0.516528926 L100.322831,1.03305785 L100.774793,1.29132231 L100.774793,10.7179752 L101.208422,10.3831883 C101.885434,9.86984947 103.161339,8.92687019 105.036157,7.55423554 L105.979572,6.85201022 C107.33066,5.83709377 108.393591,4.99507284 109.168388,4.32592975 L111.040806,2.13068182 C111.815603,1.22675168 112.525823,0.581096978 113.171488,0.193698347 L113.558884,-2.84217094e-14 L116.170224,0.430440532 C116.595881,0.502180541 117.016756,0.57392067 117.432851,0.645661157 L119.349905,1.0123325 C119.951458,1.13136772 120.625283,1.26740817 121.371384,1.42045455 C121.02703,1.76480888 120.661159,2.21676717 120.27376,2.77634298 L125.891012,2.77634298 L127.698864,1.80785124 L127.698864,1.80785124 L128.359019,1.47184413 C128.699857,1.29615449 129.103943,1.08532689 129.571281,0.839359504 L129.86011,1.05025026 C130.445662,1.49571771 131.339393,2.26477521 132.541322,3.35743802 C133.91874,4.51963391 135.080918,5.57420325 136.027893,6.52117769 L136.479855,7.16683884 L134.349174,7.61880165 L134.349174,7.61880165 C133.660465,7.79097882 132.950245,7.98467523 132.218492,8.19989669 L131.660512,8.57932273 C131.260894,8.85565473 130.80601,9.17874965 130.295858,9.54860949 L127.406969,11.6680853 C126.747857,12.1430639 126.242541,12.4935423 125.891012,12.7195248 C125.503614,13.1069234 125.137743,13.5158381 124.793388,13.946281 L125.919711,14.0323692 C126.589285,14.0897612 127.096245,14.1471531 127.440599,14.2045455 C128.602795,14.3336783 129.506712,14.5704184 130.152376,14.9147727 L130.152376,21.1131198 C130.453686,21.0270313 130.97021,20.7257257 131.701963,20.2091942 L133.57438,18.8533058 C134.435266,19.5420145 135.18853,20.209191 135.834194,20.8548554 C136.436814,21.4144312 137.168556,22.167695 138.029442,23.1146694 L137.340736,23.7746796 C136.910296,24.1955544 136.537249,24.5781663 136.221591,24.9225207 L130.152376,24.9225207 L130.152376,27.8279959 C130.711952,27.4405972 131.314563,27.0747262 131.960227,26.7303719 C133.811132,27.9356121 135.44679,29.0762687 136.867252,30.152376 L139.449897,32.1539256 C138.589011,32.79959 137.771182,33.4237229 136.996384,34.026343 C136.221587,34.6289631 135.339192,35.3607051 134.349174,36.2215909 L134.026343,36.4152893 L130.334874,31.5820545 C130.31467,31.5543833 130.296881,31.5297866 130.281508,31.5082645 L130.281508,34.9302686 C130.184659,35.2531008 130.051492,35.6001414 129.882006,35.9713964 L129.700413,36.3507231 C129.485192,36.8242104 129.291495,37.1900826 129.119318,37.4483471 C128.559742,38.0079229 128.000175,38.4168376 127.440599,38.6751033 C126.837979,39.0625019 126.192324,39.299242 125.503616,39.3853306 L119.563533,39.3853306 L119.563533,38.1585744 C119.4344,37.1255114 118.788745,36.2646384 117.62655,35.5759298 C117.110018,35.2746197 116.249145,34.9087487 115.043905,34.4783058 C115.000861,33.6604642 114.979339,32.8641568 114.979339,32.0893595 L114.297806,32.4982789 C113.98215,32.691977 113.704159,32.869533 113.463829,33.0309483 L113.236054,33.1869835 C112.590389,33.6174264 112.052344,34.0048192 111.621901,34.3491736 L111.227329,33.7752513 C110.733518,33.0638285 110.122535,32.2059406 109.394372,31.2015787 L107.656353,28.8086729 C106.835001,27.666027 106.305958,26.9086992 106.069215,26.5366736 C106.628791,26.0631863 107.231402,25.5897062 107.877066,25.116219 L102.388946,25.116219 L102.27192,24.6844327 C102.134717,24.2082584 101.936985,23.598919 101.678719,22.856405 L101.174463,21.5416029 C101.123237,21.400732 101.097624,21.3224707 101.097624,21.3068182 L101.097624,38.6105372 L98.4245883,38.8662188 C97.8047549,38.9282022 97.167703,38.9936291 96.5134298,39.0625 L92.1875,39.643595 L91.9938017,39.643595 L91.9938017,23.8894628 L88.3135331,23.8894628 L88.3135331,26.6012397 C87.710913,29.5712958 86.85004,31.9602182 85.7308884,33.7680785 C84.8269583,35.2315845 83.1697779,37.1900826 80.7592975,39.643595 L79.3307738,38.7114228 C79.1316949,38.5796003 78.9191644,38.4383616 78.6931818,38.2877066 L76.4979339,36.9318182 L76.9742901,36.0387938 C77.8810876,34.3262094 78.5123959,33.0544101 78.8682275,32.2233707 L78.9514463,32.0247934 C79.7262435,30.2169331 80.3073328,28.279969 80.6947314,26.213843 L80.6947314,23.8894628 L77.3372934,23.8894628 C77.1651162,23.2868427 77.0144635,22.6627098 76.8853306,22.0170455 L76.4979339,20.080062 L76.4979339,19.8863636 L91.9292355,19.8863636 L91.9292355,14.1399793 L87.151343,14.1399793 L87.151343,16.722624 L83.5356405,17.0454545 L83.5356405,17.0454545 L79.7908058,17.4328512 L79.5325413,17.4328512 L79.5325413,1.03305785 L83.1482438,1.42045455 L85.7510628,1.78363858 C86.0927252,1.83206317 86.4518748,1.88317811 86.8285124,1.93698347 L87.2804752,2.13068182 L87.2804752,10.072314 L91.9292355,10.072314 L91.9292355,-2.84217094e-14 Z M114.850207,6.84400826 C114.764118,7.36053977 114.699553,7.87706353 114.656508,8.39359504 C115.043907,8.52272792 115.711083,8.82403345 116.658058,9.29752066 L118.659607,10.2660124 C119.09005,9.92165806 119.520489,9.55817665 119.950929,9.17556321 L121.151383,8.07713991 C121.742841,7.52288057 122.139003,7.11183942 122.339876,6.84400826 L114.850207,6.84400826 Z M111.363636,9.49121901 L110.156049,10.1762246 C110.067943,10.2253218 109.975465,10.2767731 109.878616,10.3305785 L108.9457,10.8800499 C108.583779,11.0979052 108.292135,11.280622 108.070764,11.4282025 C108.285986,11.7725568 108.780988,12.3751679 109.555785,13.2360537 L111.169938,15.1084711 L111.169938,15.1084711 L111.702607,14.8017826 C111.95011,14.6618897 112.26756,14.484333 112.654959,14.2691116 L113.639593,13.784865 C113.908618,13.655733 114.118457,13.5588843 114.269112,13.4943182 C113.838669,12.7625652 113.38671,12.052345 112.913223,11.3636364 C112.310603,10.5027505 111.794079,9.87861764 111.363636,9.49121901 Z M100.774793,10.7179752 L100.774793,20.7257231 L103.228306,20.7257231 C102.883951,20.2091916 102.582646,19.6496242 102.32438,19.0470041 C102.772041,18.8059561 103.30234,18.551137 103.915288,18.2825418 L104.89985,17.8632921 C105.320725,17.6911163 105.904209,17.4615487 106.65031,17.1745868 C106.478133,16.8302324 106.219871,16.1415341 105.875517,15.1084711 L105.294421,13.1714876 C104.691801,13.2145319 103.917016,13.322141 102.970041,13.4943182 L102.874388,13.3890996 C102.718155,13.2105471 102.405688,12.8367032 101.936983,12.267562 L100.968492,10.9843106 C100.893165,10.8820811 100.828599,10.7933027 100.774793,10.7179752 Z M121.371384,20.7257231 L121.371384,15.4958678 L120.96964,15.6895662 L120.96964,15.6895662 L118.659607,16.722624 L118.659607,16.722624 L118.426564,16.807367 C118.06338,16.94726 117.490359,17.194762 116.707495,17.5498753 L113.333655,19.1191385 C111.657119,19.910411 110.591536,20.4459352 110.13688,20.7257231 L121.371384,20.7257231 Z M111.428202,24.9870868 C112.289088,25.5036183 113.343658,26.2784039 114.591942,27.3114669 L117.691116,29.8941116 L116.722624,30.7334711 L116.722624,30.7334711 C116.249137,31.2069583 115.883266,31.5943511 115.625,31.8956612 L117.28937,32.0678374 C117.5572,32.0965334 117.820247,32.1252294 118.078512,32.1539256 L121.371384,32.1539256 L121.371384,24.9870868 L111.428202,24.9870868 Z M103.873967,38.6105372 L104.584194,35.705062 L104.584194,35.705062 L108.939105,36.1710856 L108.939105,36.1710856 L112.022053,36.4957978 C113.013128,36.6047362 113.891276,36.707032 114.656508,36.802686 L115.495868,37.1255165 L114.914773,39.1916322 C114.699551,40.0525181 114.656508,40.8273037 114.78564,41.5160124 L128.731921,41.5160124 C129.076276,41.2577466 129.700409,40.6766574 130.604339,39.7727273 L132.41219,38.1585744 L132.41219,38.1585744 C133.531342,39.0625045 134.585911,39.9879429 135.57593,40.9349174 C136.652037,41.8818918 137.469866,42.6781993 138.029442,43.3238636 C137.555955,43.668218 137.082475,44.0771326 136.608988,44.5506198 C136.264633,44.8519299 135.963328,45.1747572 135.705062,45.5191116 L113.881715,45.5191116 C117.454391,47.2408833 121.263754,48.7689327 125.309917,50.1033058 C129.356081,51.4376788 133.1224,52.4276827 136.608988,53.0733471 C137.039431,53.20248 137.512911,53.3746546 138.029442,53.589876 C137.254645,54.8812048 136.501381,56.1725142 135.769628,57.463843 L135.316867,58.2290722 C134.762609,59.1776352 134.117217,60.3214847 133.380682,61.6606405 C125.890975,58.8627615 120.338345,56.3231863 116.722624,54.0418388 L110.330579,49.4576446 C107.059212,53.0733652 102.453542,55.892724 96.5134298,57.9158058 C92.6394434,59.2501788 87.1729003,60.4769228 80.1136364,61.5960744 C79.467972,61.5960744 78.8868827,61.6175962 78.3703512,61.6606405 L77.4018595,59.5299587 C77.1005495,58.7551614 76.7992439,58.0234194 76.4979339,57.3347107 L80.6548871,56.1375331 C84.2046967,55.1006961 86.585387,54.3590919 87.7970041,53.9127066 C91.8862119,52.4061564 95.3081818,50.619845 98.0630165,48.553719 L98.3575996,48.2833483 C98.5782001,48.0735089 98.8472244,47.8044846 99.1646746,47.4762734 L100.968492,45.5836777 L77.3372934,45.5836777 L76.8853306,43.7758264 C76.7561977,43.1732064 76.6701104,42.4199425 76.6270661,41.5160124 L103.034607,41.5160124 L103.873967,38.6105372 L103.873967,38.6105372 Z M196.771694,0.258264463 C199.225219,6.37055398 202.30284,11.8801408 206.004649,16.7871901 C208.329041,19.8863791 210.880026,22.6891708 213.657667,25.1956325 L216.270661,27.5051653 C216.787193,28.0216968 217.045455,28.4736551 217.045455,28.8610537 C215.237594,30.4967368 213.408239,32.1969609 211.557335,33.9617769 L208.006198,37.2546488 L208.006198,37.2546488 L206.392045,35.26924 C205.897039,34.6558634 205.445078,34.0909117 205.036157,33.5743802 C204.132227,32.36914 203.249832,31.1208742 202.388946,29.8295455 C199.074536,24.750319 196.513439,20.1016051 194.705579,15.8832645 L194.573511,15.5350876 C194.238942,14.6226263 193.55122,12.5864953 192.510331,9.42665289 C192.079888,8.35054558 191.714017,7.14532348 191.412707,5.81095041 L190.637913,2.32438017 C191.197489,2.06611441 191.714013,1.872418 192.1875,1.74328512 L192.665825,1.60727582 C193.618398,1.32710751 194.987012,0.877440053 196.771694,0.258264463 Z M172.365702,2.4535124 L172.688533,1.54958678 L175.78133,3.27533558 C176.531677,3.69833557 177.222506,4.09157685 177.853822,4.45506198 L178.840252,5.01463678 C180.406581,5.91138973 181.584305,6.62878519 182.37345,7.16683884 L181.351132,9.04205317 C177.473435,16.0925581 174.069402,21.5581762 171.138946,25.4390496 L166.361054,31.0563017 L163.897859,33.2754367 C163.47818,33.6512112 163.029445,34.0521673 162.551653,34.4783058 L160.089531,36.7605033 C159.917355,36.9234963 159.791093,37.0451672 159.710744,37.1255165 L157.580062,35.3176653 L157.580062,35.3176653 C156.934398,34.7150452 156.353308,34.0693905 155.836777,33.3806818 L157.121228,31.4967954 C161.942435,24.364573 165.584659,18.2597837 168.047985,13.1822833 L168.362603,12.5258264 C168.663913,11.8801621 169.998266,8.52275762 172.365702,2.4535124 Z M181.082128,23.1792355 L186.634814,24.9870868 L189.604856,25.9878617 C190.551823,26.3106915 191.455746,26.6227602 192.316632,26.9240702 L191.448125,28.3857814 C188.314566,33.6204365 185.74166,37.4806177 183.729339,39.9664256 L179.661674,44.6797521 L179.18819,45.181932 C178.75775,45.6506325 178.097743,46.3871621 177.208161,47.3915289 L176.610923,48.085617 C175.660364,49.1796559 174.934002,49.9598232 174.431818,50.4261364 L182.438017,49.9096074 L182.438017,49.9096074 L196.577996,48.8119835 C197.137572,48.7689392 197.761705,48.6182864 198.450413,48.3600207 L195.996901,43.4529959 L194.870866,41.2215883 C194.364669,40.2040282 193.9437,39.3336813 193.607955,38.6105372 C194.511885,38.0940057 195.351236,37.5990037 196.126033,37.1255165 L198.192149,36.0278926 L198.192149,36.0278926 L201.485023,39.6920216 C202.453512,40.7788819 203.292868,41.7312287 204.003099,42.5490702 C206.41358,45.3899935 208.565762,48.1232651 210.459711,50.7489669 L212.13843,53.2670455 L212.911629,54.4945996 C213.075303,54.7475493 213.204966,54.9409811 213.30062,55.0748967 L213.365186,55.3331612 L212.582322,55.7770532 C211.868061,56.176555 210.867795,56.725869 209.581515,57.425 L206.400436,59.1561228 C205.077692,59.8702235 203.934233,60.4683171 202.970041,60.9504132 L201.420455,56.947314 L200.886886,55.4519782 C200.690199,54.8849332 200.566747,54.5009767 200.516529,54.3001033 L199.935434,53.2024793 L197.029959,53.9772727 C195.867763,54.2785828 194.920803,54.5583665 194.18905,54.8166322 L189.878454,55.6267757 C186.89174,56.1821506 183.313984,56.8375479 179.145145,57.5929752 L172.009387,58.8300951 C169.339066,59.2871053 167.047377,59.671046 165.134298,59.9819215 C164.230367,59.9819215 163.369494,60.0249651 162.551653,60.1110537 L162.043662,58.7492958 C161.697531,57.8453725 161.264246,56.749709 160.743802,55.4622934 L159.187812,51.4474561 C159.098167,51.2204965 159.014213,51.0091889 158.93595,50.8135331 L158.93595,50.6198347 L160.872934,50.6198347 L167.652376,50.4261364 C169.718502,47.1978144 171.504813,44.1417155 173.011364,41.2577479 C175.594021,36.3076543 178.155118,30.6474148 180.694731,24.2768595 L181.082128,23.1792355 Z M260.614669,37.2546488 L260.614669,37.1347547 L260.420971,37.2546488 L260.420971,37.2546488 L260.614669,37.2546488 Z M283.858471,33.509814 L288.765496,36.7381198 C290.444223,37.9003157 292.079882,39.084016 293.672521,40.2892562 C293.259295,40.6336105 292.790979,41.0468306 292.267563,41.5289246 L291.864669,41.9034091 C291.175961,42.5490735 290.724002,43.0010318 290.508781,43.2592975 L290.508781,59.3362603 L285.21436,60.3047521 L279.855372,61.3378099 L279.661674,61.3378099 L279.661674,57.5284091 L251.898244,57.5284091 L251.898244,59.7882231 C250.176472,60.0464889 248.433204,60.3262726 246.668388,60.6275826 L241.309401,61.5960744 L241.115702,61.5960744 L241.115702,33.7035124 L245.054236,35.1239669 L247.581389,36.003348 C248.941011,36.4814566 250.100171,36.8985551 251.058884,37.2546488 L252.28564,37.6420455 L260.614669,37.6420455 L260.614669,37.2546488 L279.016012,37.2546488 C279.442151,37.0222096 280.112341,36.5282834 281.0266,35.7728575 L282.50393,34.5406282 C282.93706,34.1870097 283.216396,33.9725383 283.341942,33.8972107 L283.858471,33.509814 Z M279.661674,41.7097107 L251.898244,41.7097107 L251.898244,53.4607438 L279.661674,53.4607438 L279.661674,41.7097107 Z M260.614669,37.1347547 L260.614669,28.990186 L234.981921,28.990186 L234.981921,25.116219 L260.614669,25.116219 L260.614669,15.1084711 L247.63688,15.1084711 L247.208161,15.5785127 C246.877583,15.9469692 246.457475,16.4256173 245.947833,17.0144594 L244.15031,19.1115702 C242.686804,20.8333419 241.438538,22.2322605 240.405475,23.3083678 L240.134457,23.1106837 C239.769911,22.850294 239.236115,22.48575 238.533058,22.0170455 L237.747933,21.4695243 C237.376033,21.2060951 237.035126,20.9581623 236.725207,20.7257231 C238.613416,16.6680812 240.05165,13.172933 241.039944,10.2401883 L241.244835,9.62035124 C241.761366,8.11380101 242.385499,5.78944409 243.117252,2.64721074 L243.569215,1.54958678 L248.540806,2.97004132 C250.39171,3.48657283 252.048891,4.00309659 253.512397,4.5196281 L253.068182,5.51136382 C252.830579,6.03822206 252.569733,6.61156715 252.28564,7.23140496 L251.058884,9.81404959 C250.843663,10.2444925 250.649966,10.7179726 250.477789,11.2345041 L260.614669,11.2345041 L260.614669,0.0645661157 L267.151992,1.22272133 C268.540163,1.47291492 269.783052,1.71100094 270.880682,1.93698347 L271.332645,2.25981405 L271.332645,11.2345041 L283.664773,11.2345041 C284.224349,10.6749283 284.891525,10.0507955 285.666322,9.36208678 L286.52413,8.57148037 C286.868482,8.2622664 287.16364,8.00927391 287.409607,7.8125 L290.054426,10.0946325 C290.261675,10.2710599 290.456171,10.4357966 290.637913,10.588843 L291.27824,11.1459276 C292.177899,11.9367302 292.803811,12.5258245 293.155992,12.9132231 L293.155992,15.1730372 L271.332645,15.1730372 L271.332645,25.116219 L287.53874,25.116219 L289.282025,23.3083678 L289.282025,23.3083678 C289.970733,22.6627034 290.616388,22.1246578 291.219008,21.6942149 L294.253616,24.2122934 L294.253616,24.2122934 C295.5019,25.2453564 296.427339,26.1707948 297.029959,26.9886364 L297.029959,29.0547521 L271.332645,29.0547521 L271.332645,34.7365702 L262.035124,36.4152893 C261.687178,36.5644089 261.36076,36.720702 261.055867,36.8841704 L260.614669,37.1347547 L260.614669,37.1347547 Z"
                              id="中奖公告"></path>
                    </g>
                </g>
            </g>
        </g>
    </g>
</svg>
